<svg xmlns="http://www.w3.org/2000/svg" xmlns:xlink="http://www.w3.org/1999/xlink" width="400" height="300" aria-label="A chart." style="overflow: hidden;"><defs id="_ABSTRACT_RENDERER_ID_0"></defs><g><rect x="265" y="0" width="135" height="300" stroke="none" stroke-width="0" fill-opacity="0" fill="#ffffff"></rect><g column-id="mov"><rect x="265" y="0" width="135" height="11" stroke="none" stroke-width="0" fill-opacity="0" fill="#ffffff"></rect><g><text text-anchor="start" x="280" y="9.35" font-family="Arial" font-size="11" stroke="none" stroke-width="0" fill="#222222">mov</text></g><circle cx="270.5" cy="5.5" r="5.5" stroke="none" stroke-width="0" fill="#3366cc"></circle></g><g column-id="call"><rect x="265" y="18" width="135" height="11" stroke="none" stroke-width="0" fill-opacity="0" fill="#ffffff"></rect><g><text text-anchor="start" x="280" y="27.35" font-family="Arial" font-size="11" stroke="none" stroke-width="0" fill="#222222">call</text></g><circle cx="270.5" cy="23.5" r="5.5" stroke="none" stroke-width="0" fill="#dc3912"></circle></g><g column-id="lea"><rect x="265" y="36" width="135" height="11" stroke="none" stroke-width="0" fill-opacity="0" fill="#ffffff"></rect><g><text text-anchor="start" x="280" y="45.35" font-family="Arial" font-size="11" stroke="none" stroke-width="0" fill="#222222">lea</text></g><circle cx="270.5" cy="41.5" r="5.5" stroke="none" stroke-width="0" fill="#ff9900"></circle></g><g column-id="test"><rect x="265" y="54" width="135" height="11" stroke="none" stroke-width="0" fill-opacity="0" fill="#ffffff"></rect><g><text text-anchor="start" x="280" y="63.35" font-family="Arial" font-size="11" stroke="none" stroke-width="0" fill="#222222">test</text></g><circle cx="270.5" cy="59.5" r="5.5" stroke="none" stroke-width="0" fill="#109618"></circle></g><g column-id="cmp"><rect x="265" y="72" width="135" height="11" stroke="none" stroke-width="0" fill-opacity="0" fill="#ffffff"></rect><g><text text-anchor="start" x="280" y="81.35" font-family="Arial" font-size="11" stroke="none" stroke-width="0" fill="#222222">cmp</text></g><circle cx="270.5" cy="77.5" r="5.5" stroke="none" stroke-width="0" fill="#990099"></circle></g><g column-id="jmp"><rect x="265" y="90" width="135" height="11" stroke="none" stroke-width="0" fill-opacity="0" fill="#ffffff"></rect><g><text text-anchor="start" x="280" y="99.35" font-family="Arial" font-size="11" stroke="none" stroke-width="0" fill="#222222">jmp</text></g><circle cx="270.5" cy="95.5" r="5.5" stroke="none" stroke-width="0" fill="#0099c6"></circle></g><g column-id="push"><rect x="265" y="108" width="135" height="11" stroke="none" stroke-width="0" fill-opacity="0" fill="#ffffff"></rect><g><text text-anchor="start" x="280" y="117.35" font-family="Arial" font-size="11" stroke="none" stroke-width="0" fill="#222222">push</text></g><circle cx="270.5" cy="113.5" r="5.5" stroke="none" stroke-width="0" fill="#dd4477"></circle></g><g column-id="je"><rect x="265" y="126" width="135" height="11" stroke="none" stroke-width="0" fill-opacity="0" fill="#ffffff"></rect><g><text text-anchor="start" x="280" y="135.35" font-family="Arial" font-size="11" stroke="none" stroke-width="0" fill="#222222">je</text></g><circle cx="270.5" cy="131.5" r="5.5" stroke="none" stroke-width="0" fill="#66aa00"></circle></g><g column-id="xor"><rect x="265" y="144" width="135" height="11" stroke="none" stroke-width="0" fill-opacity="0" fill="#ffffff"></rect><g><text text-anchor="start" x="280" y="153.35" font-family="Arial" font-size="11" stroke="none" stroke-width="0" fill="#222222">xor</text></g><circle cx="270.5" cy="149.5" r="5.5" stroke="none" stroke-width="0" fill="#b82e2e"></circle></g><g column-id="nop"><rect x="265" y="162" width="135" height="11" stroke="none" stroke-width="0" fill-opacity="0" fill="#ffffff"></rect><g><text text-anchor="start" x="280" y="171.35" font-family="Arial" font-size="11" stroke="none" stroke-width="0" fill="#222222">nop</text></g><circle cx="270.5" cy="167.5" r="5.5" stroke="none" stroke-width="0" fill="#316395"></circle></g><g column-id="jne"><rect x="265" y="180" width="135" height="11" stroke="none" stroke-width="0" fill-opacity="0" fill="#ffffff"></rect><g><text text-anchor="start" x="280" y="189.35" font-family="Arial" font-size="11" stroke="none" stroke-width="0" fill="#222222">jne</text></g><circle cx="270.5" cy="185.5" r="5.5" stroke="none" stroke-width="0" fill="#994499"></circle></g><g column-id="pop"><rect x="265" y="198" width="135" height="11" stroke="none" stroke-width="0" fill-opacity="0" fill="#ffffff"></rect><g><text text-anchor="start" x="280" y="207.35" font-family="Arial" font-size="11" stroke="none" stroke-width="0" fill="#222222">pop</text></g><circle cx="270.5" cy="203.5" r="5.5" stroke="none" stroke-width="0" fill="#22aa99"></circle></g><g column-id="add"><rect x="265" y="216" width="135" height="11" stroke="none" stroke-width="0" fill-opacity="0" fill="#ffffff"></rect><g><text text-anchor="start" x="280" y="225.35" font-family="Arial" font-size="11" stroke="none" stroke-width="0" fill="#222222">add</text></g><circle cx="270.5" cy="221.5" r="5.5" stroke="none" stroke-width="0" fill="#aaaa11"></circle></g><g column-id="sub"><rect x="265" y="234" width="135" height="11" stroke="none" stroke-width="0" fill-opacity="0" fill="#ffffff"></rect><g><text text-anchor="start" x="280" y="243.35" font-family="Arial" font-size="11" stroke="none" stroke-width="0" fill="#222222">sub</text></g><circle cx="270.5" cy="239.5" r="5.5" stroke="none" stroke-width="0" fill="#6633cc"></circle></g><g column-id="movzx"><rect x="265" y="252" width="135" height="11" stroke="none" stroke-width="0" fill-opacity="0" fill="#ffffff"></rect><g><text text-anchor="start" x="280" y="261.35" font-family="Arial" font-size="11" stroke="none" stroke-width="0" fill="#222222">movzx</text></g><circle cx="270.5" cy="257.5" r="5.5" stroke="none" stroke-width="0" fill="#e67300"></circle></g><g></g></g><g><path d="M124,82.35L124.00000000000001,27A123,123,0,0,1,238.33543203554956,195.34764581810424L186.88448761955226,174.94120519995732A67.65,67.65,0,0,0,124,82.35" stroke="#ffffff" stroke-width="1" fill="#3366cc"></path><text text-anchor="start" x="195.55799124250473" y="97.7796964871261" font-family="Arial" font-size="11" stroke="none" stroke-width="0" fill="#ffffff">31%</text></g><g><path d="M186.88448761955226,174.94120519995732L238.33543203554956,195.34764581810424A123,123,0,0,1,203.5297836796376,243.82970482672343L167.7413810238007,201.60633765469788A67.65,67.65,0,0,0,186.88448761955226,174.94120519995732" stroke="#ffffff" stroke-width="1" fill="#dc3912"></path><text text-anchor="start" x="191.59885261688342" y="211.35359112016314" font-family="Arial" font-size="11" stroke="none" stroke-width="0" fill="#ffffff">7.8%</text></g><g><path d="M167.74138102380067,201.6063376546979L203.52978367963757,243.82970482672346A123,123,0,0,1,159.47916665967523,267.7719352525677L143.51354166282138,214.7745643889122A67.65,67.65,0,0,0,167.74138102380067,201.6063376546979" stroke="#ffffff" stroke-width="1" fill="#ff9900"></path><text text-anchor="start" x="159.67713290669758" y="242.48971288581114" font-family="Arial" font-size="11" stroke="none" stroke-width="0" fill="#ffffff">6.5%</text></g><g><path d="M117.15622285120928,82.69706385054445L111.55676882038051,27.631025182808102A123,123,0,0,1,124.00000000000001,27L123.99999999999999,82.35A67.65,67.65,0,0,0,117.15622285120928,82.69706385054445" stroke="#ffffff" stroke-width="1" fill="#cccccc"></path></g><g><path d="M116.56552301710236,82.75975124978517L110.48276912200431,27.74500227233669A123,123,0,0,1,111.55676882038051,27.631025182808102L117.15622285120928,82.69706385054445A67.65,67.65,0,0,0,116.56552301710236,82.75975124978517" stroke="#ffffff" stroke-width="1" fill="#ff9900"></path></g><g><path d="M115.95847197307597,82.82964696391572L109.37903995104722,27.87208538893769A123,123,0,0,1,110.4827691220042,27.745002272336706L116.56552301710231,82.75975124978518A67.65,67.65,0,0,0,115.95847197307597,82.82964696391572" stroke="#ffffff" stroke-width="1" fill="#dc3912"></path></g><g><path d="M115.34108878833763,82.90644027457964L108.2565250697048,28.011709590144818A123,123,0,0,1,109.37903995104733,27.872085388937677L115.95847197307603,82.82964696391572A67.65,67.65,0,0,0,115.34108878833763,82.90644027457964" stroke="#ffffff" stroke-width="1" fill="#3366cc"></path></g><g><path d="M114.67378847808237,82.99593834215382L107.0432517783316,28.174433349370602A123,123,0,0,1,108.2565250697048,28.011709590144818L115.34108878833763,82.90644027457964A67.65,67.65,0,0,0,114.67378847808237,82.99593834215382" stroke="#ffffff" stroke-width="1" fill="#743411"></path></g><g><path d="M113.95515504102609,83.09989843243751L105.73664552913834,28.36345169534094A123,123,0,0,1,107.0432517783316,28.174433349370602L114.67378847808237,82.99593834215382A67.65,67.65,0,0,0,113.95515504102609,83.09989843243751" stroke="#ffffff" stroke-width="1" fill="#0c5922"></path></g><g><path d="M113.22842356692793,83.21305785449908L104.41531557623259,28.56919609908924A123,123,0,0,1,105.73664552913834,28.36345169534094L113.95515504102609,83.09989843243751A67.65,67.65,0,0,0,113.22842356692793,83.21305785449908" stroke="#ffffff" stroke-width="1" fill="#bea413"></path></g><g><path d="M112.45593639086098,83.34223904609341L103.01079343792907,28.804070992897124A123,123,0,0,1,104.41531557623259,28.56919609908924L113.22842356692793,83.21305785449908A67.65,67.65,0,0,0,112.45593639086098,83.34223904609341" stroke="#ffffff" stroke-width="1" fill="#668d1c"></path></g><g><path d="M111.62466486202801,83.49155256493445L101.49939065823274,29.07555011806265A123,123,0,0,1,103.01079343792907,28.804070992897124L112.45593639086098,83.34223904609341A67.65,67.65,0,0,0,111.62466486202801,83.49155256493445" stroke="#ffffff" stroke-width="1" fill="#2a778d"></path></g><g><path d="M110.74517448529663,83.66123229532546L99.90031724599388,29.384058718773588A123,123,0,0,1,101.49939065823274,29.07555011806265L111.62466486202801,83.49155256493445A67.65,67.65,0,0,0,110.74517448529663,83.66123229532546" stroke="#ffffff" stroke-width="1" fill="#a9c413"></path></g><g><path d="M109.81133851147496,83.85467223481278L98.20243365722719,29.73576769965962A123,123,0,0,1,99.9003172459941,29.38405871877353L110.74517448529676,83.66123229532543A67.65,67.65,0,0,0,109.81133851147496,83.85467223481278" stroke="#ffffff" stroke-width="1" fill="#9c5935"></path></g><g><path d="M108.8736767145425,84.06278104238982L96.4975940264409,30.11414734979968A123,123,0,0,1,98.20243365722719,29.73576769965962L109.81133851147496,83.85467223481278A67.65,67.65,0,0,0,108.8736767145425,84.06278104238982" stroke="#ffffff" stroke-width="1" fill="#f4359e"></path></g><g><path d="M107.91008964918625,84.29126934034734L94.745617543975,30.52958061881337A123,123,0,0,1,96.4975940264409,30.11414734979968L108.8736767145425,84.06278104238982A67.65,67.65,0,0,0,107.91008964918625,84.29126934034734" stroke="#ffffff" stroke-width="1" fill="#b91383"></path></g><g><path d="M106.81308123910065,84.56963760220911L92.75105679836484,31.035704731289314A123,123,0,0,1,94.745617543975,30.52958061881337L107.91008964918625,84.29126934034734A67.65,67.65,0,0,0,106.81308123910065,84.56963760220911" stroke="#ffffff" stroke-width="1" fill="#16d620"></path></g><g><path d="M105.33063231456939,84.97710241594736L90.05569511739888,31.776549847177023A123,123,0,0,1,92.75105679836484,31.035704731289314L106.81308123910065,84.56963760220911A67.65,67.65,0,0,0,105.33063231456939,84.97710241594736" stroke="#ffffff" stroke-width="1" fill="#b77322"></path></g><g><path d="M103.80413522371731,85.43492007332365L87.2802458613042,32.6089455878612A123,123,0,0,1,90.05569511739867,31.77654984717708L105.33063231456927,84.97710241594739A67.65,67.65,0,0,0,103.80413522371731,85.43492007332365" stroke="#ffffff" stroke-width="1" fill="#3b3eac"></path></g><g><path d="M101.81000054772845,86.09282963306708L83.65454645041538,33.805144787394696A123,123,0,0,1,87.2802458613042,32.6089455878612L103.80413522371731,85.43492007332365A67.65,67.65,0,0,0,101.81000054772845,86.09282963306708" stroke="#ffffff" stroke-width="1" fill="#5574a6"></path></g><g><path d="M99.31587790903038,87.01415542680954L79.11977801641888,35.48028259419917A123,123,0,0,1,83.65454645041538,33.805144787394696L101.81000054772845,86.09282963306708A67.65,67.65,0,0,0,99.31587790903038,87.01415542680954" stroke="#ffffff" stroke-width="1" fill="#329262"></path></g><g><path d="M96.23363827931479,88.31084652229318L73.51570596239054,37.83790276780579A123,123,0,0,1,79.11977801641888,35.48028259419917L99.31587790903038,87.01415542680954A67.65,67.65,0,0,0,96.23363827931479,88.31084652229318" stroke="#ffffff" stroke-width="1" fill="#651067"></path></g><g><path d="M92.24734751640187,90.26482141772865L66.26790457527613,41.39058439587028A123,123,0,0,1,73.51570596239054,37.83790276780579L96.23363827931479,88.31084652229318A67.65,67.65,0,0,0,92.24734751640187,90.26482141772865" stroke="#ffffff" stroke-width="1" fill="#8b0707"></path></g><g><path d="M87.59331455878507,92.98179452855054L57.80602647051832,46.33053550645553A123,123,0,0,1,66.26790457527613,41.39058439587028L92.24734751640187,90.26482141772865A67.65,67.65,0,0,0,87.59331455878507,92.98179452855054" stroke="#ffffff" stroke-width="1" fill="#e67300"></path></g><g><path d="M82.006528487676,96.96160965542381L47.64823361395635,53.56656300986147A123,123,0,0,1,57.80602647051839,46.330535506455476L87.59331455878512,92.9817945285505A67.65,67.65,0,0,0,82.006528487676,96.96160965542381" stroke="#ffffff" stroke-width="1" fill="#6633cc"></path></g><g><path d="M74.29101245518822,104.1138467806491L33.620022645796766,66.57063051027109A123,123,0,0,1,47.648233613956194,53.56656300986161L82.0065284876759,96.96160965542389A67.65,67.65,0,0,0,74.29101245518822,104.1138467806491" stroke="#ffffff" stroke-width="1" fill="#aaaa11"></path></g><g><path d="M66.04210213808457,115.10867478257981L18.622003887426516,86.56122687741787A123,123,0,0,1,33.620022645796766,66.57063051027109L74.29101245518822,104.1138467806491A67.65,67.65,0,0,0,66.04210213808457,115.10867478257981" stroke="#ffffff" stroke-width="1" fill="#22aa99"></path></g><g><path d="M60.01792904216796,128.02690062947545L7.668961894850838,110.04891023540992A123,123,0,0,1,18.622003887426516,86.56122687741787L66.04210213808457,115.10867478257981A67.65,67.65,0,0,0,60.01792904216796,128.02690062947545" stroke="#ffffff" stroke-width="1" fill="#994499"></path></g><g><path d="M56.475288659082125,145.88468004576592L1.2277975619675061,142.51760008321077A123,123,0,0,1,7.668961894850838,110.04891023540992L60.01792904216796,128.02690062947545A67.65,67.65,0,0,0,56.475288659082125,145.88468004576592" stroke="#ffffff" stroke-width="1" fill="#316395"></path><text text-anchor="start" x="14.755797897119706" y="134.65780878688474" font-family="Arial" font-size="11" stroke="none" stroke-width="0" fill="#ffffff">4.3%</text></g><g><path d="M57.91026988270832,164.44541702490966L3.8368543321969497,176.2643945907448A123,123,0,0,1,1.2277975619675061,142.51760008321077L56.475288659082125,145.88468004576592A67.65,67.65,0,0,0,57.91026988270832,164.44541702490966" stroke="#ffffff" stroke-width="1" fill="#b82e2e"></path><text text-anchor="start" x="12.772631945192344" y="161.48288222746083" font-family="Arial" font-size="11" stroke="none" stroke-width="0" fill="#ffffff">4.4%</text></g><g><path d="M65.93271868426459,184.70898069087087L18.423124880481097,213.10723761976521A123,123,0,0,1,3.8368543321969497,176.2643945907448L57.91026988270832,164.44541702490966A67.65,67.65,0,0,0,65.93271868426459,184.70898069087087" stroke="#ffffff" stroke-width="1" fill="#66aa00"></path><text text-anchor="start" x="20.05395670031369" y="190.05395763401526" font-family="Arial" font-size="11" stroke="none" stroke-width="0" fill="#ffffff">5.1%</text></g><g><path d="M79.98876532241866,201.37639265416425L43.97957331348847,243.41162300757134A123,123,0,0,1,18.423124880481097,213.10723761976521L65.93271868426459,184.70898069087087A67.65,67.65,0,0,0,79.98876532241866,201.37639265416425" stroke="#ffffff" stroke-width="1" fill="#dd4477"></path><text text-anchor="start" x="35.94751053928813" y="217.56530972098025" font-family="Arial" font-size="11" stroke="none" stroke-width="0" fill="#ffffff">5.2%</text></g><g><path d="M98.87965769613746,212.81314275322302L78.32665035661356,264.20571409676916A123,123,0,0,1,43.97957331348847,243.41162300757134L79.98876532241866,201.37639265416425A67.65,67.65,0,0,0,98.87965769613746,212.81314275322302" stroke="#ffffff" stroke-width="1" fill="#0099c6"></path><text text-anchor="start" x="59.427559779881875" y="239.86174768312137" font-family="Arial" font-size="11" stroke="none" stroke-width="0" fill="#ffffff">5.2%</text></g><g><path d="M120.53668933679674,217.56129053866675L117.70307152144863,272.8387100703032A123,123,0,0,1,78.32665035661356,264.20571409676916L98.87965769613746,212.81314275322302A67.65,67.65,0,0,0,120.53668933679674,217.56129053866675" stroke="#ffffff" stroke-width="1" fill="#990099"></path><text text-anchor="start" x="89.35496478262107" y="254.85690838995643" font-family="Arial" font-size="11" stroke="none" stroke-width="0" fill="#ffffff">5.2%</text></g><g><path d="M143.51354166282138,214.7745643889122L159.47916665967523,267.7719352525677A123,123,0,0,1,117.70307152144863,272.8387100703032L120.53668933679674,217.56129053866675A67.65,67.65,0,0,0,143.51354166282138,214.7745643889122" stroke="#ffffff" stroke-width="1" fill="#109618"></path><text text-anchor="start" x="124.07202224312167" y="257.50765525440903" font-family="Arial" font-size="11" stroke="none" stroke-width="0" fill="#ffffff">5.5%</text></g><g></g></svg>
