<?xml version="1.0" encoding="UTF-8" standalone="no"?>
<!DOCTYPE svg PUBLIC "-//W3C//DTD SVG 1.1//EN"
 "http://www.w3.org/Graphics/SVG/1.1/DTD/svg11.dtd">
<!-- Generated by graphviz version 2.40.1 (20161225.0304)
 -->
<!-- Title: G Pages: 1 -->
<svg width="278pt" height="260pt"
 viewBox="0.00 0.00 278.00 260.00" xmlns="http://www.w3.org/2000/svg" xmlns:xlink="http://www.w3.org/1999/xlink">
<g id="graph0" class="graph" transform="scale(1 1) rotate(0) translate(4 256)">
<title>G</title>
<polygon fill="#ffffff" stroke="transparent" points="-4,4 -4,-256 274,-256 274,4 -4,4"/>
<!-- e1 -->
<g id="node1" class="node">
<title>e1</title>
<ellipse fill="none" stroke="#000000" cx="171" cy="-234" rx="27" ry="18"/>
<text text-anchor="middle" x="171" y="-229.8" font-family="Times,serif" font-size="14.00" fill="#000000">expr</text>
</g>
<!-- m1 -->
<g id="node2" class="node">
<title>m1</title>
<ellipse fill="none" stroke="#000000" cx="99" cy="-162" rx="27" ry="18"/>
<text text-anchor="middle" x="99" y="-157.8" font-family="Times,serif" font-size="14.00" fill="#000000">mul</text>
</g>
<!-- e1&#45;&gt;m1 -->
<g id="edge1" class="edge">
<title>e1&#45;&gt;m1</title>
<path fill="none" stroke="#000000" d="M155.7307,-218.7307C145.803,-208.803 132.6847,-195.6847 121.5637,-184.5637"/>
<polygon fill="#000000" stroke="#000000" points="123.7933,-181.8436 114.2473,-177.2473 118.8436,-186.7933 123.7933,-181.8436"/>
</g>
<!-- + -->
<g id="node8" class="node">
<title>+</title>
<ellipse fill="#f0f0f0" stroke="#000000" cx="171" cy="-162" rx="27" ry="18"/>
<text text-anchor="middle" x="171" y="-157.8" font-family="Times,serif" font-size="14.00" fill="#000000">+</text>
</g>
<!-- e1&#45;&gt;+ -->
<g id="edge7" class="edge">
<title>e1&#45;&gt;+</title>
<path fill="none" stroke="#000000" d="M171,-215.8314C171,-208.131 171,-198.9743 171,-190.4166"/>
<polygon fill="#000000" stroke="#000000" points="174.5001,-190.4132 171,-180.4133 167.5001,-190.4133 174.5001,-190.4132"/>
</g>
<!-- m3 -->
<g id="node9" class="node">
<title>m3</title>
<ellipse fill="none" stroke="#000000" cx="243" cy="-162" rx="27" ry="18"/>
<text text-anchor="middle" x="243" y="-157.8" font-family="Times,serif" font-size="14.00" fill="#000000">mul</text>
</g>
<!-- e1&#45;&gt;m3 -->
<g id="edge8" class="edge">
<title>e1&#45;&gt;m3</title>
<path fill="none" stroke="#000000" d="M186.2693,-218.7307C196.197,-208.803 209.3153,-195.6847 220.4363,-184.5637"/>
<polygon fill="#000000" stroke="#000000" points="223.1564,-186.7933 227.7527,-177.2473 218.2067,-181.8436 223.1564,-186.7933"/>
</g>
<!-- n1 -->
<g id="node3" class="node">
<title>n1</title>
<ellipse fill="none" stroke="#000000" cx="27" cy="-90" rx="27" ry="18"/>
<text text-anchor="middle" x="27" y="-85.8" font-family="Times,serif" font-size="14.00" fill="#000000">num</text>
</g>
<!-- m1&#45;&gt;n1 -->
<g id="edge2" class="edge">
<title>m1&#45;&gt;n1</title>
<path fill="none" stroke="#000000" d="M83.7307,-146.7307C73.803,-136.803 60.6847,-123.6847 49.5637,-112.5637"/>
<polygon fill="#000000" stroke="#000000" points="51.7933,-109.8436 42.2473,-105.2473 46.8436,-114.7933 51.7933,-109.8436"/>
</g>
<!-- * -->
<g id="node5" class="node">
<title>*</title>
<ellipse fill="#f0f0f0" stroke="#000000" cx="99" cy="-90" rx="27" ry="18"/>
<text text-anchor="middle" x="99" y="-85.8" font-family="Times,serif" font-size="14.00" fill="#000000">*</text>
</g>
<!-- m1&#45;&gt;* -->
<g id="edge4" class="edge">
<title>m1&#45;&gt;*</title>
<path fill="none" stroke="#000000" d="M99,-143.8314C99,-136.131 99,-126.9743 99,-118.4166"/>
<polygon fill="#000000" stroke="#000000" points="102.5001,-118.4132 99,-108.4133 95.5001,-118.4133 102.5001,-118.4132"/>
</g>
<!-- n2 -->
<g id="node6" class="node">
<title>n2</title>
<ellipse fill="none" stroke="#000000" cx="171" cy="-90" rx="27" ry="18"/>
<text text-anchor="middle" x="171" y="-85.8" font-family="Times,serif" font-size="14.00" fill="#000000">num</text>
</g>
<!-- m1&#45;&gt;n2 -->
<g id="edge5" class="edge">
<title>m1&#45;&gt;n2</title>
<path fill="none" stroke="#000000" d="M114.2693,-146.7307C124.197,-136.803 137.3153,-123.6847 148.4363,-112.5637"/>
<polygon fill="#000000" stroke="#000000" points="151.1564,-114.7933 155.7527,-105.2473 146.2067,-109.8436 151.1564,-114.7933"/>
</g>
<!-- 1 -->
<g id="node4" class="node">
<title>1</title>
<ellipse fill="#f0f0f0" stroke="#000000" cx="27" cy="-18" rx="27" ry="18"/>
<text text-anchor="middle" x="27" y="-13.8" font-family="Times,serif" font-size="14.00" fill="#000000">1</text>
</g>
<!-- n1&#45;&gt;1 -->
<g id="edge3" class="edge">
<title>n1&#45;&gt;1</title>
<path fill="none" stroke="#000000" d="M27,-71.8314C27,-64.131 27,-54.9743 27,-46.4166"/>
<polygon fill="#000000" stroke="#000000" points="30.5001,-46.4132 27,-36.4133 23.5001,-46.4133 30.5001,-46.4132"/>
</g>
<!-- 2 -->
<g id="node7" class="node">
<title>2</title>
<ellipse fill="#f0f0f0" stroke="#000000" cx="171" cy="-18" rx="27" ry="18"/>
<text text-anchor="middle" x="171" y="-13.8" font-family="Times,serif" font-size="14.00" fill="#000000">2</text>
</g>
<!-- n2&#45;&gt;2 -->
<g id="edge6" class="edge">
<title>n2&#45;&gt;2</title>
<path fill="none" stroke="#000000" d="M171,-71.8314C171,-64.131 171,-54.9743 171,-46.4166"/>
<polygon fill="#000000" stroke="#000000" points="174.5001,-46.4132 171,-36.4133 167.5001,-46.4133 174.5001,-46.4132"/>
</g>
<!-- n3 -->
<g id="node10" class="node">
<title>n3</title>
<ellipse fill="none" stroke="#000000" cx="243" cy="-90" rx="27" ry="18"/>
<text text-anchor="middle" x="243" y="-85.8" font-family="Times,serif" font-size="14.00" fill="#000000">num</text>
</g>
<!-- m3&#45;&gt;n3 -->
<g id="edge9" class="edge">
<title>m3&#45;&gt;n3</title>
<path fill="none" stroke="#000000" d="M243,-143.8314C243,-136.131 243,-126.9743 243,-118.4166"/>
<polygon fill="#000000" stroke="#000000" points="246.5001,-118.4132 243,-108.4133 239.5001,-118.4133 246.5001,-118.4132"/>
</g>
<!-- 3 -->
<g id="node11" class="node">
<title>3</title>
<ellipse fill="#f0f0f0" stroke="#000000" cx="243" cy="-18" rx="27" ry="18"/>
<text text-anchor="middle" x="243" y="-13.8" font-family="Times,serif" font-size="14.00" fill="#000000">3</text>
</g>
<!-- n3&#45;&gt;3 -->
<g id="edge10" class="edge">
<title>n3&#45;&gt;3</title>
<path fill="none" stroke="#000000" d="M243,-71.8314C243,-64.131 243,-54.9743 243,-46.4166"/>
<polygon fill="#000000" stroke="#000000" points="246.5001,-46.4132 243,-36.4133 239.5001,-46.4133 246.5001,-46.4132"/>
</g>
</g>
</svg>
