<?xml version="1.0" encoding="UTF-8" standalone="no"?>
<!DOCTYPE svg PUBLIC "-//W3C//DTD SVG 1.1//EN"
 "http://www.w3.org/Graphics/SVG/1.1/DTD/svg11.dtd">
<!-- Generated by graphviz version 2.40.1 (20161225.0304)
 -->
<!-- Title: G Pages: 1 -->
<svg width="566pt" height="260pt"
 viewBox="0.00 0.00 566.00 260.00" xmlns="http://www.w3.org/2000/svg" xmlns:xlink="http://www.w3.org/1999/xlink">
<g id="graph0" class="graph" transform="scale(1 1) rotate(0) translate(4 256)">
<title>G</title>
<polygon fill="#ffffff" stroke="transparent" points="-4,4 -4,-256 562,-256 562,4 -4,4"/>
<!-- e1 -->
<g id="node1" class="node">
<title>e1</title>
<ellipse fill="none" stroke="#000000" cx="252" cy="-234" rx="27" ry="18"/>
<text text-anchor="middle" x="252" y="-229.8" font-family="Times,serif" font-size="14.00" fill="#000000">expr</text>
</g>
<!-- m1 -->
<g id="node2" class="node">
<title>m1</title>
<ellipse fill="none" stroke="#000000" cx="144" cy="-162" rx="27" ry="18"/>
<text text-anchor="middle" x="144" y="-157.8" font-family="Times,serif" font-size="14.00" fill="#000000">mul</text>
</g>
<!-- e1&#45;&gt;m1 -->
<g id="edge1" class="edge">
<title>e1&#45;&gt;m1</title>
<path fill="none" stroke="#000000" d="M232.6918,-221.1278C215.6445,-209.763 190.5981,-193.0654 171.4656,-180.3104"/>
<polygon fill="#000000" stroke="#000000" points="173.4031,-177.3956 163.1411,-174.7607 169.5201,-183.2199 173.4031,-177.3956"/>
</g>
<!-- + -->
<g id="node8" class="node">
<title>+</title>
<ellipse fill="#f0f0f0" stroke="#000000" cx="252" cy="-162" rx="27" ry="18"/>
<text text-anchor="middle" x="252" y="-157.8" font-family="Times,serif" font-size="14.00" fill="#000000">+</text>
</g>
<!-- e1&#45;&gt;+ -->
<g id="edge7" class="edge">
<title>e1&#45;&gt;+</title>
<path fill="none" stroke="#000000" d="M252,-215.8314C252,-208.131 252,-198.9743 252,-190.4166"/>
<polygon fill="#000000" stroke="#000000" points="255.5001,-190.4132 252,-180.4133 248.5001,-190.4133 255.5001,-190.4132"/>
</g>
<!-- m3 -->
<g id="node9" class="node">
<title>m3</title>
<ellipse fill="none" stroke="#000000" cx="342" cy="-162" rx="27" ry="18"/>
<text text-anchor="middle" x="342" y="-157.8" font-family="Times,serif" font-size="14.00" fill="#000000">mul</text>
</g>
<!-- e1&#45;&gt;m3 -->
<g id="edge8" class="edge">
<title>e1&#45;&gt;m3</title>
<path fill="none" stroke="#000000" d="M269.3529,-220.1177C282.7997,-209.3602 301.6239,-194.3009 316.741,-182.2072"/>
<polygon fill="#000000" stroke="#000000" points="319.0781,-184.8197 324.7004,-175.8397 314.7052,-179.3536 319.0781,-184.8197"/>
</g>
<!-- n1 -->
<g id="node3" class="node">
<title>n1</title>
<ellipse fill="none" stroke="#000000" cx="27" cy="-90" rx="27" ry="18"/>
<text text-anchor="middle" x="27" y="-85.8" font-family="Times,serif" font-size="14.00" fill="#000000">num</text>
</g>
<!-- m1&#45;&gt;n1 -->
<g id="edge2" class="edge">
<title>m1&#45;&gt;n1</title>
<path fill="none" stroke="#000000" d="M124.1525,-149.7862C105.327,-138.2013 76.8354,-120.6679 55.5679,-107.5803"/>
<polygon fill="#000000" stroke="#000000" points="57.2958,-104.5339 46.9448,-102.2737 53.6271,-110.4956 57.2958,-104.5339"/>
</g>
<!-- mul1 -->
<g id="node5" class="node">
<title>mul1</title>
<ellipse fill="#f0f0f0" stroke="#000000" cx="99" cy="-90" rx="27" ry="18"/>
<text text-anchor="middle" x="99" y="-85.8" font-family="Times,serif" font-size="14.00" fill="#000000">*</text>
</g>
<!-- m1&#45;&gt;mul1 -->
<g id="edge4" class="edge">
<title>m1&#45;&gt;mul1</title>
<path fill="none" stroke="#000000" d="M133.563,-145.3008C128.0765,-136.5224 121.2314,-125.5703 115.0837,-115.7339"/>
<polygon fill="#000000" stroke="#000000" points="117.9609,-113.7336 109.6929,-107.1086 112.0249,-117.4436 117.9609,-113.7336"/>
</g>
<!-- n2 -->
<g id="node6" class="node">
<title>n2</title>
<ellipse fill="none" stroke="#000000" cx="171" cy="-90" rx="27" ry="18"/>
<text text-anchor="middle" x="171" y="-85.8" font-family="Times,serif" font-size="14.00" fill="#000000">num</text>
</g>
<!-- m1&#45;&gt;n2 -->
<g id="edge5" class="edge">
<title>m1&#45;&gt;n2</title>
<path fill="none" stroke="#000000" d="M150.6742,-144.2022C153.7476,-136.0064 157.4616,-126.1024 160.8695,-117.0145"/>
<polygon fill="#000000" stroke="#000000" points="164.1685,-118.1853 164.4026,-107.593 157.6142,-115.7274 164.1685,-118.1853"/>
</g>
<!-- 1 -->
<g id="node4" class="node">
<title>1</title>
<ellipse fill="#f0f0f0" stroke="#000000" cx="27" cy="-18" rx="27" ry="18"/>
<text text-anchor="middle" x="27" y="-13.8" font-family="Times,serif" font-size="14.00" fill="#000000">1</text>
</g>
<!-- n1&#45;&gt;1 -->
<g id="edge3" class="edge">
<title>n1&#45;&gt;1</title>
<path fill="none" stroke="#000000" d="M27,-71.8314C27,-64.131 27,-54.9743 27,-46.4166"/>
<polygon fill="#000000" stroke="#000000" points="30.5001,-46.4132 27,-36.4133 23.5001,-46.4133 30.5001,-46.4132"/>
</g>
<!-- 2 -->
<g id="node7" class="node">
<title>2</title>
<ellipse fill="#f0f0f0" stroke="#000000" cx="171" cy="-18" rx="27" ry="18"/>
<text text-anchor="middle" x="171" y="-13.8" font-family="Times,serif" font-size="14.00" fill="#000000">2</text>
</g>
<!-- n2&#45;&gt;2 -->
<g id="edge6" class="edge">
<title>n2&#45;&gt;2</title>
<path fill="none" stroke="#000000" d="M171,-71.8314C171,-64.131 171,-54.9743 171,-46.4166"/>
<polygon fill="#000000" stroke="#000000" points="174.5001,-46.4132 171,-36.4133 167.5001,-46.4133 174.5001,-46.4132"/>
</g>
<!-- n3 -->
<g id="node10" class="node">
<title>n3</title>
<ellipse fill="none" stroke="#000000" cx="243" cy="-90" rx="27" ry="18"/>
<text text-anchor="middle" x="243" y="-85.8" font-family="Times,serif" font-size="14.00" fill="#000000">num</text>
</g>
<!-- m3&#45;&gt;n3 -->
<g id="edge9" class="edge">
<title>m3&#45;&gt;n3</title>
<path fill="none" stroke="#000000" d="M323.3789,-148.4574C308.3065,-137.4956 286.8746,-121.9088 269.9313,-109.5864"/>
<polygon fill="#000000" stroke="#000000" points="271.6836,-106.5331 261.5376,-103.4819 267.5664,-112.1943 271.6836,-106.5331"/>
</g>
<!-- mul2 -->
<g id="node12" class="node">
<title>mul2</title>
<ellipse fill="#f0f0f0" stroke="#000000" cx="315" cy="-90" rx="27" ry="18"/>
<text text-anchor="middle" x="315" y="-85.8" font-family="Times,serif" font-size="14.00" fill="#000000">*</text>
</g>
<!-- m3&#45;&gt;mul2 -->
<g id="edge11" class="edge">
<title>m3&#45;&gt;mul2</title>
<path fill="none" stroke="#000000" d="M335.3258,-144.2022C332.2524,-136.0064 328.5384,-126.1024 325.1305,-117.0145"/>
<polygon fill="#000000" stroke="#000000" points="328.3858,-115.7274 321.5974,-107.593 321.8315,-118.1853 328.3858,-115.7274"/>
</g>
<!-- n5 -->
<g id="node13" class="node">
<title>n5</title>
<ellipse fill="none" stroke="#000000" cx="387" cy="-90" rx="27" ry="18"/>
<text text-anchor="middle" x="387" y="-85.8" font-family="Times,serif" font-size="14.00" fill="#000000">num</text>
</g>
<!-- m3&#45;&gt;n5 -->
<g id="edge12" class="edge">
<title>m3&#45;&gt;n5</title>
<path fill="none" stroke="#000000" d="M352.437,-145.3008C357.9235,-136.5224 364.7686,-125.5703 370.9163,-115.7339"/>
<polygon fill="#000000" stroke="#000000" points="373.9751,-117.4436 376.3071,-107.1086 368.0391,-113.7336 373.9751,-117.4436"/>
</g>
<!-- mul3 -->
<g id="node15" class="node">
<title>mul3</title>
<ellipse fill="#f0f0f0" stroke="#000000" cx="459" cy="-90" rx="27" ry="18"/>
<text text-anchor="middle" x="459" y="-85.8" font-family="Times,serif" font-size="14.00" fill="#000000">*</text>
</g>
<!-- m3&#45;&gt;mul3 -->
<g id="edge14" class="edge">
<title>m3&#45;&gt;mul3</title>
<path fill="none" stroke="#000000" d="M361.8475,-149.7862C380.673,-138.2013 409.1646,-120.6679 430.4321,-107.5803"/>
<polygon fill="#000000" stroke="#000000" points="432.3729,-110.4956 439.0552,-102.2737 428.7042,-104.5339 432.3729,-110.4956"/>
</g>
<!-- n6 -->
<g id="node16" class="node">
<title>n6</title>
<ellipse fill="none" stroke="#000000" cx="531" cy="-90" rx="27" ry="18"/>
<text text-anchor="middle" x="531" y="-85.8" font-family="Times,serif" font-size="14.00" fill="#000000">num</text>
</g>
<!-- m3&#45;&gt;n6 -->
<g id="edge15" class="edge">
<title>m3&#45;&gt;n6</title>
<path fill="none" stroke="#000000" d="M366.7372,-154.319C397.2909,-144.5933 450.662,-126.8227 495,-108 496.7849,-107.2423 498.6059,-106.4373 500.4341,-105.6042"/>
<polygon fill="#000000" stroke="#000000" points="501.9735,-108.7479 509.5023,-101.2935 498.9682,-102.4258 501.9735,-108.7479"/>
</g>
<!-- 3 -->
<g id="node11" class="node">
<title>3</title>
<ellipse fill="#f0f0f0" stroke="#000000" cx="243" cy="-18" rx="27" ry="18"/>
<text text-anchor="middle" x="243" y="-13.8" font-family="Times,serif" font-size="14.00" fill="#000000">3</text>
</g>
<!-- n3&#45;&gt;3 -->
<g id="edge10" class="edge">
<title>n3&#45;&gt;3</title>
<path fill="none" stroke="#000000" d="M243,-71.8314C243,-64.131 243,-54.9743 243,-46.4166"/>
<polygon fill="#000000" stroke="#000000" points="246.5001,-46.4132 243,-36.4133 239.5001,-46.4133 246.5001,-46.4132"/>
</g>
<!-- 4 -->
<g id="node14" class="node">
<title>4</title>
<ellipse fill="#f0f0f0" stroke="#000000" cx="387" cy="-18" rx="27" ry="18"/>
<text text-anchor="middle" x="387" y="-13.8" font-family="Times,serif" font-size="14.00" fill="#000000">4</text>
</g>
<!-- n5&#45;&gt;4 -->
<g id="edge13" class="edge">
<title>n5&#45;&gt;4</title>
<path fill="none" stroke="#000000" d="M387,-71.8314C387,-64.131 387,-54.9743 387,-46.4166"/>
<polygon fill="#000000" stroke="#000000" points="390.5001,-46.4132 387,-36.4133 383.5001,-46.4133 390.5001,-46.4132"/>
</g>
<!-- 5 -->
<g id="node17" class="node">
<title>5</title>
<ellipse fill="#f0f0f0" stroke="#000000" cx="531" cy="-18" rx="27" ry="18"/>
<text text-anchor="middle" x="531" y="-13.8" font-family="Times,serif" font-size="14.00" fill="#000000">5</text>
</g>
<!-- n6&#45;&gt;5 -->
<g id="edge16" class="edge">
<title>n6&#45;&gt;5</title>
<path fill="none" stroke="#000000" d="M531,-71.8314C531,-64.131 531,-54.9743 531,-46.4166"/>
<polygon fill="#000000" stroke="#000000" points="534.5001,-46.4132 531,-36.4133 527.5001,-46.4133 534.5001,-46.4132"/>
</g>
</g>
</svg>
