<?xml version="1.0" encoding="UTF-8" standalone="no"?>
<!DOCTYPE svg PUBLIC "-//W3C//DTD SVG 1.1//EN"
 "http://www.w3.org/Graphics/SVG/1.1/DTD/svg11.dtd">
<!-- Generated by graphviz version 2.40.1 (20161225.0304)
 -->
<!-- Title: G Pages: 1 -->
<svg width="170pt" height="188pt"
 viewBox="0.00 0.00 170.00 188.00" xmlns="http://www.w3.org/2000/svg" xmlns:xlink="http://www.w3.org/1999/xlink">
<g id="graph0" class="graph" transform="scale(1 1) rotate(0) translate(4 184)">
<title>G</title>
<polygon fill="#ffffff" stroke="transparent" points="-4,4 -4,-184 166,-184 166,4 -4,4"/>
<!-- + -->
<g id="node1" class="node">
<title>+</title>
<ellipse fill="none" stroke="#000000" cx="63" cy="-162" rx="27" ry="18"/>
<text text-anchor="middle" x="63" y="-157.8" font-family="Times,serif" font-size="14.00" fill="#000000">+</text>
</g>
<!-- 2 -->
<g id="node2" class="node">
<title>2</title>
<ellipse fill="none" stroke="#000000" cx="27" cy="-90" rx="27" ry="18"/>
<text text-anchor="middle" x="27" y="-85.8" font-family="Times,serif" font-size="14.00" fill="#000000">2</text>
</g>
<!-- +&#45;&gt;2 -->
<g id="edge1" class="edge">
<title>+&#45;&gt;2</title>
<path fill="none" stroke="#000000" d="M54.2854,-144.5708C50.0403,-136.0807 44.8464,-125.6929 40.1337,-116.2674"/>
<polygon fill="#000000" stroke="#000000" points="43.237,-114.6477 35.6343,-107.2687 36.976,-117.7782 43.237,-114.6477"/>
</g>
<!-- * -->
<g id="node3" class="node">
<title>*</title>
<ellipse fill="none" stroke="#000000" cx="99" cy="-90" rx="27" ry="18"/>
<text text-anchor="middle" x="99" y="-85.8" font-family="Times,serif" font-size="14.00" fill="#000000">*</text>
</g>
<!-- +&#45;&gt;* -->
<g id="edge2" class="edge">
<title>+&#45;&gt;*</title>
<path fill="none" stroke="#000000" d="M71.7146,-144.5708C75.9597,-136.0807 81.1536,-125.6929 85.8663,-116.2674"/>
<polygon fill="#000000" stroke="#000000" points="89.024,-117.7782 90.3657,-107.2687 82.763,-114.6477 89.024,-117.7782"/>
</g>
<!-- 3 -->
<g id="node4" class="node">
<title>3</title>
<ellipse fill="none" stroke="#000000" cx="63" cy="-18" rx="27" ry="18"/>
<text text-anchor="middle" x="63" y="-13.8" font-family="Times,serif" font-size="14.00" fill="#000000">3</text>
</g>
<!-- *&#45;&gt;3 -->
<g id="edge3" class="edge">
<title>*&#45;&gt;3</title>
<path fill="none" stroke="#000000" d="M90.2854,-72.5708C86.0403,-64.0807 80.8464,-53.6929 76.1337,-44.2674"/>
<polygon fill="#000000" stroke="#000000" points="79.237,-42.6477 71.6343,-35.2687 72.976,-45.7782 79.237,-42.6477"/>
</g>
<!-- 4 -->
<g id="node5" class="node">
<title>4</title>
<ellipse fill="none" stroke="#000000" cx="135" cy="-18" rx="27" ry="18"/>
<text text-anchor="middle" x="135" y="-13.8" font-family="Times,serif" font-size="14.00" fill="#000000">4</text>
</g>
<!-- *&#45;&gt;4 -->
<g id="edge4" class="edge">
<title>*&#45;&gt;4</title>
<path fill="none" stroke="#000000" d="M107.7146,-72.5708C111.9597,-64.0807 117.1536,-53.6929 121.8663,-44.2674"/>
<polygon fill="#000000" stroke="#000000" points="125.024,-45.7782 126.3657,-35.2687 118.763,-42.6477 125.024,-45.7782"/>
</g>
</g>
</svg>
