<?xml version="1.0" encoding="UTF-8" standalone="no"?>
<!DOCTYPE svg PUBLIC "-//W3C//DTD SVG 1.1//EN"
 "http://www.w3.org/Graphics/SVG/1.1/DTD/svg11.dtd">
<!-- Generated by graphviz version 2.40.1 (20161225.0304)
 -->
<!-- Title: G Pages: 1 -->
<svg width="278pt" height="548pt"
 viewBox="0.00 0.00 278.00 548.00" xmlns="http://www.w3.org/2000/svg" xmlns:xlink="http://www.w3.org/1999/xlink">
<g id="graph0" class="graph" transform="scale(1 1) rotate(0) translate(4 544)">
<title>G</title>
<polygon fill="#ffffff" stroke="transparent" points="-4,4 -4,-544 274,-544 274,4 -4,4"/>
<!-- e0 -->
<g id="node1" class="node">
<title>e0</title>
<ellipse fill="none" stroke="#000000" cx="99" cy="-522" rx="27" ry="18"/>
<text text-anchor="middle" x="99" y="-517.8" font-family="Times,serif" font-size="14.00" fill="#000000">expr</text>
</g>
<!-- m0 -->
<g id="node2" class="node">
<title>m0</title>
<ellipse fill="none" stroke="#000000" cx="99" cy="-450" rx="27" ry="18"/>
<text text-anchor="middle" x="99" y="-445.8" font-family="Times,serif" font-size="14.00" fill="#000000">mul</text>
</g>
<!-- e0&#45;&gt;m0 -->
<g id="edge1" class="edge">
<title>e0&#45;&gt;m0</title>
<path fill="none" stroke="#000000" d="M99,-503.8314C99,-496.131 99,-486.9743 99,-478.4166"/>
<polygon fill="#000000" stroke="#000000" points="102.5001,-478.4132 99,-468.4133 95.5001,-478.4133 102.5001,-478.4132"/>
</g>
<!-- t0 -->
<g id="node3" class="node">
<title>t0</title>
<ellipse fill="none" stroke="#000000" cx="27" cy="-378" rx="27" ry="18"/>
<text text-anchor="middle" x="27" y="-373.8" font-family="Times,serif" font-size="14.00" fill="#000000">term</text>
</g>
<!-- m0&#45;&gt;t0 -->
<g id="edge2" class="edge">
<title>m0&#45;&gt;t0</title>
<path fill="none" stroke="#000000" d="M83.7307,-434.7307C73.803,-424.803 60.6847,-411.6847 49.5637,-400.5637"/>
<polygon fill="#000000" stroke="#000000" points="51.7933,-397.8436 42.2473,-393.2473 46.8436,-402.7933 51.7933,-397.8436"/>
</g>
<!-- * -->
<g id="node6" class="node">
<title>*</title>
<ellipse fill="#f0f0f0" stroke="#000000" cx="99" cy="-378" rx="27" ry="18"/>
<text text-anchor="middle" x="99" y="-373.8" font-family="Times,serif" font-size="14.00" fill="#000000">*</text>
</g>
<!-- m0&#45;&gt;* -->
<g id="edge5" class="edge">
<title>m0&#45;&gt;*</title>
<path fill="none" stroke="#000000" d="M99,-431.8314C99,-424.131 99,-414.9743 99,-406.4166"/>
<polygon fill="#000000" stroke="#000000" points="102.5001,-406.4132 99,-396.4133 95.5001,-406.4133 102.5001,-406.4132"/>
</g>
<!-- t1 -->
<g id="node7" class="node">
<title>t1</title>
<ellipse fill="none" stroke="#000000" cx="171" cy="-378" rx="27" ry="18"/>
<text text-anchor="middle" x="171" y="-373.8" font-family="Times,serif" font-size="14.00" fill="#000000">term</text>
</g>
<!-- m0&#45;&gt;t1 -->
<g id="edge6" class="edge">
<title>m0&#45;&gt;t1</title>
<path fill="none" stroke="#000000" d="M114.2693,-434.7307C124.197,-424.803 137.3153,-411.6847 148.4363,-400.5637"/>
<polygon fill="#000000" stroke="#000000" points="151.1564,-402.7933 155.7527,-393.2473 146.2067,-397.8436 151.1564,-402.7933"/>
</g>
<!-- n0 -->
<g id="node4" class="node">
<title>n0</title>
<ellipse fill="none" stroke="#000000" cx="27" cy="-306" rx="27" ry="18"/>
<text text-anchor="middle" x="27" y="-301.8" font-family="Times,serif" font-size="14.00" fill="#000000">num</text>
</g>
<!-- t0&#45;&gt;n0 -->
<g id="edge3" class="edge">
<title>t0&#45;&gt;n0</title>
<path fill="none" stroke="#000000" d="M27,-359.8314C27,-352.131 27,-342.9743 27,-334.4166"/>
<polygon fill="#000000" stroke="#000000" points="30.5001,-334.4132 27,-324.4133 23.5001,-334.4133 30.5001,-334.4132"/>
</g>
<!-- 1 -->
<g id="node5" class="node">
<title>1</title>
<ellipse fill="#f0f0f0" stroke="#000000" cx="27" cy="-234" rx="27" ry="18"/>
<text text-anchor="middle" x="27" y="-229.8" font-family="Times,serif" font-size="14.00" fill="#000000">1</text>
</g>
<!-- n0&#45;&gt;1 -->
<g id="edge4" class="edge">
<title>n0&#45;&gt;1</title>
<path fill="none" stroke="#000000" d="M27,-287.8314C27,-280.131 27,-270.9743 27,-262.4166"/>
<polygon fill="#000000" stroke="#000000" points="30.5001,-262.4132 27,-252.4133 23.5001,-262.4133 30.5001,-262.4132"/>
</g>
<!-- ( -->
<g id="node8" class="node">
<title>(</title>
<ellipse fill="#f0f0f0" stroke="#000000" cx="99" cy="-306" rx="27" ry="18"/>
<text text-anchor="middle" x="99" y="-301.8" font-family="Times,serif" font-size="14.00" fill="#000000">(</text>
</g>
<!-- t1&#45;&gt;( -->
<g id="edge7" class="edge">
<title>t1&#45;&gt;(</title>
<path fill="none" stroke="#000000" d="M155.7307,-362.7307C145.803,-352.803 132.6847,-339.6847 121.5637,-328.5637"/>
<polygon fill="#000000" stroke="#000000" points="123.7933,-325.8436 114.2473,-321.2473 118.8436,-330.7933 123.7933,-325.8436"/>
</g>
<!-- e1 -->
<g id="node9" class="node">
<title>e1</title>
<ellipse fill="none" stroke="#000000" cx="171" cy="-306" rx="27" ry="18"/>
<text text-anchor="middle" x="171" y="-301.8" font-family="Times,serif" font-size="14.00" fill="#000000">expr</text>
</g>
<!-- t1&#45;&gt;e1 -->
<g id="edge8" class="edge">
<title>t1&#45;&gt;e1</title>
<path fill="none" stroke="#000000" d="M171,-359.8314C171,-352.131 171,-342.9743 171,-334.4166"/>
<polygon fill="#000000" stroke="#000000" points="174.5001,-334.4132 171,-324.4133 167.5001,-334.4133 174.5001,-334.4132"/>
</g>
<!-- ) -->
<g id="node19" class="node">
<title>)</title>
<ellipse fill="#f0f0f0" stroke="#000000" cx="243" cy="-306" rx="27" ry="18"/>
<text text-anchor="middle" x="243" y="-301.8" font-family="Times,serif" font-size="14.00" fill="#000000">)</text>
</g>
<!-- t1&#45;&gt;) -->
<g id="edge18" class="edge">
<title>t1&#45;&gt;)</title>
<path fill="none" stroke="#000000" d="M186.2693,-362.7307C196.197,-352.803 209.3153,-339.6847 220.4363,-328.5637"/>
<polygon fill="#000000" stroke="#000000" points="223.1564,-330.7933 227.7527,-321.2473 218.2067,-325.8436 223.1564,-330.7933"/>
</g>
<!-- m2 -->
<g id="node10" class="node">
<title>m2</title>
<ellipse fill="none" stroke="#000000" cx="99" cy="-234" rx="27" ry="18"/>
<text text-anchor="middle" x="99" y="-229.8" font-family="Times,serif" font-size="14.00" fill="#000000">mul</text>
</g>
<!-- e1&#45;&gt;m2 -->
<g id="edge9" class="edge">
<title>e1&#45;&gt;m2</title>
<path fill="none" stroke="#000000" d="M155.7307,-290.7307C145.803,-280.803 132.6847,-267.6847 121.5637,-256.5637"/>
<polygon fill="#000000" stroke="#000000" points="123.7933,-253.8436 114.2473,-249.2473 118.8436,-258.7933 123.7933,-253.8436"/>
</g>
<!-- + -->
<g id="node14" class="node">
<title>+</title>
<ellipse fill="#f0f0f0" stroke="#000000" cx="171" cy="-234" rx="27" ry="18"/>
<text text-anchor="middle" x="171" y="-229.8" font-family="Times,serif" font-size="14.00" fill="#000000">+</text>
</g>
<!-- e1&#45;&gt;+ -->
<g id="edge13" class="edge">
<title>e1&#45;&gt;+</title>
<path fill="none" stroke="#000000" d="M171,-287.8314C171,-280.131 171,-270.9743 171,-262.4166"/>
<polygon fill="#000000" stroke="#000000" points="174.5001,-262.4132 171,-252.4133 167.5001,-262.4133 174.5001,-262.4132"/>
</g>
<!-- m3 -->
<g id="node15" class="node">
<title>m3</title>
<ellipse fill="none" stroke="#000000" cx="243" cy="-234" rx="27" ry="18"/>
<text text-anchor="middle" x="243" y="-229.8" font-family="Times,serif" font-size="14.00" fill="#000000">mul</text>
</g>
<!-- e1&#45;&gt;m3 -->
<g id="edge14" class="edge">
<title>e1&#45;&gt;m3</title>
<path fill="none" stroke="#000000" d="M186.2693,-290.7307C196.197,-280.803 209.3153,-267.6847 220.4363,-256.5637"/>
<polygon fill="#000000" stroke="#000000" points="223.1564,-258.7933 227.7527,-249.2473 218.2067,-253.8436 223.1564,-258.7933"/>
</g>
<!-- t2 -->
<g id="node11" class="node">
<title>t2</title>
<ellipse fill="none" stroke="#000000" cx="99" cy="-162" rx="27" ry="18"/>
<text text-anchor="middle" x="99" y="-157.8" font-family="Times,serif" font-size="14.00" fill="#000000">term</text>
</g>
<!-- m2&#45;&gt;t2 -->
<g id="edge10" class="edge">
<title>m2&#45;&gt;t2</title>
<path fill="none" stroke="#000000" d="M99,-215.8314C99,-208.131 99,-198.9743 99,-190.4166"/>
<polygon fill="#000000" stroke="#000000" points="102.5001,-190.4132 99,-180.4133 95.5001,-190.4133 102.5001,-190.4132"/>
</g>
<!-- n1 -->
<g id="node12" class="node">
<title>n1</title>
<ellipse fill="none" stroke="#000000" cx="99" cy="-90" rx="27" ry="18"/>
<text text-anchor="middle" x="99" y="-85.8" font-family="Times,serif" font-size="14.00" fill="#000000">num</text>
</g>
<!-- t2&#45;&gt;n1 -->
<g id="edge11" class="edge">
<title>t2&#45;&gt;n1</title>
<path fill="none" stroke="#000000" d="M99,-143.8314C99,-136.131 99,-126.9743 99,-118.4166"/>
<polygon fill="#000000" stroke="#000000" points="102.5001,-118.4132 99,-108.4133 95.5001,-118.4133 102.5001,-118.4132"/>
</g>
<!-- 2 -->
<g id="node13" class="node">
<title>2</title>
<ellipse fill="#f0f0f0" stroke="#000000" cx="99" cy="-18" rx="27" ry="18"/>
<text text-anchor="middle" x="99" y="-13.8" font-family="Times,serif" font-size="14.00" fill="#000000">2</text>
</g>
<!-- n1&#45;&gt;2 -->
<g id="edge12" class="edge">
<title>n1&#45;&gt;2</title>
<path fill="none" stroke="#000000" d="M99,-71.8314C99,-64.131 99,-54.9743 99,-46.4166"/>
<polygon fill="#000000" stroke="#000000" points="102.5001,-46.4132 99,-36.4133 95.5001,-46.4133 102.5001,-46.4132"/>
</g>
<!-- t3 -->
<g id="node16" class="node">
<title>t3</title>
<ellipse fill="none" stroke="#000000" cx="243" cy="-162" rx="27" ry="18"/>
<text text-anchor="middle" x="243" y="-157.8" font-family="Times,serif" font-size="14.00" fill="#000000">term</text>
</g>
<!-- m3&#45;&gt;t3 -->
<g id="edge15" class="edge">
<title>m3&#45;&gt;t3</title>
<path fill="none" stroke="#000000" d="M243,-215.8314C243,-208.131 243,-198.9743 243,-190.4166"/>
<polygon fill="#000000" stroke="#000000" points="246.5001,-190.4132 243,-180.4133 239.5001,-190.4133 246.5001,-190.4132"/>
</g>
<!-- n2 -->
<g id="node17" class="node">
<title>n2</title>
<ellipse fill="none" stroke="#000000" cx="243" cy="-90" rx="27" ry="18"/>
<text text-anchor="middle" x="243" y="-85.8" font-family="Times,serif" font-size="14.00" fill="#000000">num</text>
</g>
<!-- t3&#45;&gt;n2 -->
<g id="edge16" class="edge">
<title>t3&#45;&gt;n2</title>
<path fill="none" stroke="#000000" d="M243,-143.8314C243,-136.131 243,-126.9743 243,-118.4166"/>
<polygon fill="#000000" stroke="#000000" points="246.5001,-118.4132 243,-108.4133 239.5001,-118.4133 246.5001,-118.4132"/>
</g>
<!-- 3 -->
<g id="node18" class="node">
<title>3</title>
<ellipse fill="#f0f0f0" stroke="#000000" cx="243" cy="-18" rx="27" ry="18"/>
<text text-anchor="middle" x="243" y="-13.8" font-family="Times,serif" font-size="14.00" fill="#000000">3</text>
</g>
<!-- n2&#45;&gt;3 -->
<g id="edge17" class="edge">
<title>n2&#45;&gt;3</title>
<path fill="none" stroke="#000000" d="M243,-71.8314C243,-64.131 243,-54.9743 243,-46.4166"/>
<polygon fill="#000000" stroke="#000000" points="246.5001,-46.4132 243,-36.4133 239.5001,-46.4133 246.5001,-46.4132"/>
</g>
</g>
</svg>
