<?xml version="1.0" encoding="UTF-8" standalone="no"?>
<!DOCTYPE svg PUBLIC "-//W3C//DTD SVG 1.1//EN"
 "http://www.w3.org/Graphics/SVG/1.1/DTD/svg11.dtd">
<!-- Generated by graphviz version 2.40.1 (20161225.0304)
 -->
<!-- Title: G Pages: 1 -->
<svg width="297pt" height="404pt"
 viewBox="0.00 0.00 297.00 404.00" xmlns="http://www.w3.org/2000/svg" xmlns:xlink="http://www.w3.org/1999/xlink">
<g id="graph0" class="graph" transform="scale(1 1) rotate(0) translate(4 400)">
<title>G</title>
<polygon fill="#ffffff" stroke="transparent" points="-4,4 -4,-400 293,-400 293,4 -4,4"/>
<!-- e1 -->
<g id="node1" class="node">
<title>e1</title>
<ellipse fill="none" stroke="#000000" cx="135" cy="-378" rx="27" ry="18"/>
<text text-anchor="middle" x="135" y="-373.8" font-family="Times,serif" font-size="14.00" fill="#000000">expr</text>
</g>
<!-- e3 -->
<g id="node2" class="node">
<title>e3</title>
<ellipse fill="none" stroke="#000000" cx="135" cy="-306" rx="27" ry="18"/>
<text text-anchor="middle" x="135" y="-301.8" font-family="Times,serif" font-size="14.00" fill="#000000">mul</text>
</g>
<!-- e1&#45;&gt;e3 -->
<g id="edge1" class="edge">
<title>e1&#45;&gt;e3</title>
<path fill="none" stroke="#000000" d="M135,-359.8314C135,-352.131 135,-342.9743 135,-334.4166"/>
<polygon fill="#000000" stroke="#000000" points="138.5001,-334.4132 135,-324.4133 131.5001,-334.4133 138.5001,-334.4132"/>
</g>
<!-- e5 -->
<g id="node3" class="node">
<title>e5</title>
<ellipse fill="none" stroke="#000000" cx="60" cy="-234" rx="30.4862" ry="18"/>
<text text-anchor="middle" x="60" y="-229.8" font-family="Times,serif" font-size="14.00" fill="#000000">unary</text>
</g>
<!-- e3&#45;&gt;e5 -->
<g id="edge3" class="edge">
<title>e3&#45;&gt;e5</title>
<path fill="none" stroke="#000000" d="M119.46,-291.0816C109.0418,-281.0801 95.1322,-267.7269 83.3858,-256.4504"/>
<polygon fill="#000000" stroke="#000000" points="85.6754,-253.7966 76.0376,-249.3961 80.8276,-258.8463 85.6754,-253.7966"/>
</g>
<!-- * -->
<g id="node8" class="node">
<title>*</title>
<ellipse fill="#f0f0f0" stroke="#000000" cx="135" cy="-234" rx="27" ry="18"/>
<text text-anchor="middle" x="135" y="-229.8" font-family="Times,serif" font-size="14.00" fill="#000000">*</text>
</g>
<!-- e3&#45;&gt;* -->
<g id="edge7" class="edge">
<title>e3&#45;&gt;*</title>
<path fill="none" stroke="#000000" d="M135,-287.8314C135,-280.131 135,-270.9743 135,-262.4166"/>
<polygon fill="#000000" stroke="#000000" points="138.5001,-262.4132 135,-252.4133 131.5001,-262.4133 138.5001,-262.4132"/>
</g>
<!-- e8 -->
<g id="node9" class="node">
<title>e8</title>
<ellipse fill="none" stroke="#000000" cx="210" cy="-234" rx="30.4862" ry="18"/>
<text text-anchor="middle" x="210" y="-229.8" font-family="Times,serif" font-size="14.00" fill="#000000">unary</text>
</g>
<!-- e3&#45;&gt;e8 -->
<g id="edge8" class="edge">
<title>e3&#45;&gt;e8</title>
<path fill="none" stroke="#000000" d="M150.54,-291.0816C160.9582,-281.0801 174.8678,-267.7269 186.6142,-256.4504"/>
<polygon fill="#000000" stroke="#000000" points="189.1724,-258.8463 193.9624,-249.3961 184.3246,-253.7966 189.1724,-258.8463"/>
</g>
<!-- &#45; -->
<g id="node4" class="node">
<title>&#45;</title>
<ellipse fill="#f0f0f0" stroke="#000000" cx="27" cy="-162" rx="27" ry="18"/>
<text text-anchor="middle" x="27" y="-157.8" font-family="Times,serif" font-size="14.00" fill="#000000">&#45;</text>
</g>
<!-- e5&#45;&gt;&#45; -->
<g id="edge2" class="edge">
<title>e5&#45;&gt;&#45;</title>
<path fill="none" stroke="#000000" d="M52.0116,-216.5708C48.1608,-208.1691 43.4583,-197.9091 39.1744,-188.5623"/>
<polygon fill="#000000" stroke="#000000" points="42.2631,-186.901 34.9148,-179.2687 35.8997,-189.8177 42.2631,-186.901"/>
</g>
<!-- e6 -->
<g id="node5" class="node">
<title>e6</title>
<ellipse fill="none" stroke="#000000" cx="99" cy="-162" rx="27" ry="18"/>
<text text-anchor="middle" x="99" y="-157.8" font-family="Times,serif" font-size="14.00" fill="#000000">term</text>
</g>
<!-- e5&#45;&gt;e6 -->
<g id="edge4" class="edge">
<title>e5&#45;&gt;e6</title>
<path fill="none" stroke="#000000" d="M69.4408,-216.5708C74.0396,-208.0807 79.6664,-197.6929 84.7718,-188.2674"/>
<polygon fill="#000000" stroke="#000000" points="87.9608,-189.7286 89.6461,-179.2687 81.8057,-186.3946 87.9608,-189.7286"/>
</g>
<!-- e7 -->
<g id="node6" class="node">
<title>e7</title>
<ellipse fill="none" stroke="#000000" cx="99" cy="-90" rx="27" ry="18"/>
<text text-anchor="middle" x="99" y="-85.8" font-family="Times,serif" font-size="14.00" fill="#000000">num</text>
</g>
<!-- e6&#45;&gt;e7 -->
<g id="edge5" class="edge">
<title>e6&#45;&gt;e7</title>
<path fill="none" stroke="#000000" d="M99,-143.8314C99,-136.131 99,-126.9743 99,-118.4166"/>
<polygon fill="#000000" stroke="#000000" points="102.5001,-118.4132 99,-108.4133 95.5001,-118.4133 102.5001,-118.4132"/>
</g>
<!-- 3 -->
<g id="node7" class="node">
<title>3</title>
<ellipse fill="#f0f0f0" stroke="#000000" cx="99" cy="-18" rx="27" ry="18"/>
<text text-anchor="middle" x="99" y="-13.8" font-family="Times,serif" font-size="14.00" fill="#000000">3</text>
</g>
<!-- e7&#45;&gt;3 -->
<g id="edge6" class="edge">
<title>e7&#45;&gt;3</title>
<path fill="none" stroke="#000000" d="M99,-71.8314C99,-64.131 99,-54.9743 99,-46.4166"/>
<polygon fill="#000000" stroke="#000000" points="102.5001,-46.4132 99,-36.4133 95.5001,-46.4133 102.5001,-46.4132"/>
</g>
<!-- + -->
<g id="node10" class="node">
<title>+</title>
<ellipse fill="#f0f0f0" stroke="#000000" cx="190" cy="-162" rx="27" ry="18"/>
<text text-anchor="middle" x="190" y="-157.8" font-family="Times,serif" font-size="14.00" fill="#000000">+</text>
</g>
<!-- e8&#45;&gt;+ -->
<g id="edge9" class="edge">
<title>e8&#45;&gt;+</title>
<path fill="none" stroke="#000000" d="M205.0562,-216.2022C202.8206,-208.1541 200.1274,-198.4588 197.6407,-189.5067"/>
<polygon fill="#000000" stroke="#000000" points="201.0051,-188.541 194.9563,-179.8425 194.2605,-190.4145 201.0051,-188.541"/>
</g>
<!-- e9 -->
<g id="node11" class="node">
<title>e9</title>
<ellipse fill="none" stroke="#000000" cx="262" cy="-162" rx="27" ry="18"/>
<text text-anchor="middle" x="262" y="-157.8" font-family="Times,serif" font-size="14.00" fill="#000000">term</text>
</g>
<!-- e8&#45;&gt;e9 -->
<g id="edge10" class="edge">
<title>e8&#45;&gt;e9</title>
<path fill="none" stroke="#000000" d="M222.0605,-217.3008C228.558,-208.3043 236.7044,-197.0247 243.9423,-187.0029"/>
<polygon fill="#000000" stroke="#000000" points="246.9873,-188.7647 250.0049,-178.6087 241.3125,-184.6662 246.9873,-188.7647"/>
</g>
<!-- e10 -->
<g id="node12" class="node">
<title>e10</title>
<ellipse fill="none" stroke="#000000" cx="262" cy="-90" rx="27" ry="18"/>
<text text-anchor="middle" x="262" y="-85.8" font-family="Times,serif" font-size="14.00" fill="#000000">num</text>
</g>
<!-- e9&#45;&gt;e10 -->
<g id="edge11" class="edge">
<title>e9&#45;&gt;e10</title>
<path fill="none" stroke="#000000" d="M262,-143.8314C262,-136.131 262,-126.9743 262,-118.4166"/>
<polygon fill="#000000" stroke="#000000" points="265.5001,-118.4132 262,-108.4133 258.5001,-118.4133 265.5001,-118.4132"/>
</g>
<!-- 5 -->
<g id="node13" class="node">
<title>5</title>
<ellipse fill="#f0f0f0" stroke="#000000" cx="262" cy="-18" rx="27" ry="18"/>
<text text-anchor="middle" x="262" y="-13.8" font-family="Times,serif" font-size="14.00" fill="#000000">5</text>
</g>
<!-- e10&#45;&gt;5 -->
<g id="edge12" class="edge">
<title>e10&#45;&gt;5</title>
<path fill="none" stroke="#000000" d="M262,-71.8314C262,-64.131 262,-54.9743 262,-46.4166"/>
<polygon fill="#000000" stroke="#000000" points="265.5001,-46.4132 262,-36.4133 258.5001,-46.4133 265.5001,-46.4132"/>
</g>
</g>
</svg>
