<?xml version="1.0" encoding="UTF-8" standalone="no"?>
<!DOCTYPE svg PUBLIC "-//W3C//DTD SVG 1.1//EN"
 "http://www.w3.org/Graphics/SVG/1.1/DTD/svg11.dtd">
<!-- Generated by graphviz version 2.40.1 (20161225.0304)
 -->
<!-- Title: G Pages: 1 -->
<svg width="350pt" height="188pt"
 viewBox="0.00 0.00 350.00 188.00" xmlns="http://www.w3.org/2000/svg" xmlns:xlink="http://www.w3.org/1999/xlink">
<g id="graph0" class="graph" transform="scale(1 1) rotate(0) translate(4 184)">
<title>G</title>
<polygon fill="#ffffff" stroke="transparent" points="-4,4 -4,-184 346,-184 346,4 -4,4"/>
<!-- e1 -->
<g id="node1" class="node">
<title>e1</title>
<ellipse fill="none" stroke="#000000" cx="171" cy="-162" rx="27" ry="18"/>
<text text-anchor="middle" x="171" y="-157.8" font-family="Times,serif" font-size="14.00" fill="#000000">expr</text>
</g>
<!-- n1 -->
<g id="node2" class="node">
<title>n1</title>
<ellipse fill="none" stroke="#000000" cx="27" cy="-90" rx="27" ry="18"/>
<text text-anchor="middle" x="27" y="-85.8" font-family="Times,serif" font-size="14.00" fill="#000000">num</text>
</g>
<!-- e1&#45;&gt;n1 -->
<g id="edge1" class="edge">
<title>e1&#45;&gt;n1</title>
<path fill="none" stroke="#000000" d="M149.1295,-151.0647C124.7778,-138.8889 85.238,-119.119 57.7715,-105.3858"/>
<polygon fill="#000000" stroke="#000000" points="59.114,-102.1439 48.6045,-100.8022 55.9835,-108.4049 59.114,-102.1439"/>
</g>
<!-- &#45; -->
<g id="node4" class="node">
<title>&#45;</title>
<ellipse fill="#f0f0f0" stroke="#000000" cx="99" cy="-90" rx="27" ry="18"/>
<text text-anchor="middle" x="99" y="-85.8" font-family="Times,serif" font-size="14.00" fill="#000000">&#45;</text>
</g>
<!-- e1&#45;&gt;&#45; -->
<g id="edge3" class="edge">
<title>e1&#45;&gt;&#45;</title>
<path fill="none" stroke="#000000" d="M155.7307,-146.7307C145.803,-136.803 132.6847,-123.6847 121.5637,-112.5637"/>
<polygon fill="#000000" stroke="#000000" points="123.7933,-109.8436 114.2473,-105.2473 118.8436,-114.7933 123.7933,-109.8436"/>
</g>
<!-- n2 -->
<g id="node5" class="node">
<title>n2</title>
<ellipse fill="none" stroke="#000000" cx="171" cy="-90" rx="27" ry="18"/>
<text text-anchor="middle" x="171" y="-85.8" font-family="Times,serif" font-size="14.00" fill="#000000">num</text>
</g>
<!-- e1&#45;&gt;n2 -->
<g id="edge4" class="edge">
<title>e1&#45;&gt;n2</title>
<path fill="none" stroke="#000000" d="M171,-143.8314C171,-136.131 171,-126.9743 171,-118.4166"/>
<polygon fill="#000000" stroke="#000000" points="174.5001,-118.4132 171,-108.4133 167.5001,-118.4133 174.5001,-118.4132"/>
</g>
<!-- + -->
<g id="node7" class="node">
<title>+</title>
<ellipse fill="#f0f0f0" stroke="#000000" cx="243" cy="-90" rx="27" ry="18"/>
<text text-anchor="middle" x="243" y="-85.8" font-family="Times,serif" font-size="14.00" fill="#000000">+</text>
</g>
<!-- e1&#45;&gt;+ -->
<g id="edge6" class="edge">
<title>e1&#45;&gt;+</title>
<path fill="none" stroke="#000000" d="M186.2693,-146.7307C196.197,-136.803 209.3153,-123.6847 220.4363,-112.5637"/>
<polygon fill="#000000" stroke="#000000" points="223.1564,-114.7933 227.7527,-105.2473 218.2067,-109.8436 223.1564,-114.7933"/>
</g>
<!-- n3 -->
<g id="node8" class="node">
<title>n3</title>
<ellipse fill="none" stroke="#000000" cx="315" cy="-90" rx="27" ry="18"/>
<text text-anchor="middle" x="315" y="-85.8" font-family="Times,serif" font-size="14.00" fill="#000000">num</text>
</g>
<!-- e1&#45;&gt;n3 -->
<g id="edge7" class="edge">
<title>e1&#45;&gt;n3</title>
<path fill="none" stroke="#000000" d="M192.8705,-151.0647C217.2222,-138.8889 256.762,-119.119 284.2285,-105.3858"/>
<polygon fill="#000000" stroke="#000000" points="286.0165,-108.4049 293.3955,-100.8022 282.886,-102.1439 286.0165,-108.4049"/>
</g>
<!-- 42 -->
<g id="node3" class="node">
<title>42</title>
<ellipse fill="#f0f0f0" stroke="#000000" cx="27" cy="-18" rx="27" ry="18"/>
<text text-anchor="middle" x="27" y="-13.8" font-family="Times,serif" font-size="14.00" fill="#000000">42</text>
</g>
<!-- n1&#45;&gt;42 -->
<g id="edge2" class="edge">
<title>n1&#45;&gt;42</title>
<path fill="none" stroke="#000000" d="M27,-71.8314C27,-64.131 27,-54.9743 27,-46.4166"/>
<polygon fill="#000000" stroke="#000000" points="30.5001,-46.4132 27,-36.4133 23.5001,-46.4133 30.5001,-46.4132"/>
</g>
<!-- 30 -->
<g id="node6" class="node">
<title>30</title>
<ellipse fill="#f0f0f0" stroke="#000000" cx="171" cy="-18" rx="27" ry="18"/>
<text text-anchor="middle" x="171" y="-13.8" font-family="Times,serif" font-size="14.00" fill="#000000">30</text>
</g>
<!-- n2&#45;&gt;30 -->
<g id="edge5" class="edge">
<title>n2&#45;&gt;30</title>
<path fill="none" stroke="#000000" d="M171,-71.8314C171,-64.131 171,-54.9743 171,-46.4166"/>
<polygon fill="#000000" stroke="#000000" points="174.5001,-46.4132 171,-36.4133 167.5001,-46.4133 174.5001,-46.4132"/>
</g>
<!-- 2 -->
<g id="node9" class="node">
<title>2</title>
<ellipse fill="#f0f0f0" stroke="#000000" cx="315" cy="-18" rx="27" ry="18"/>
<text text-anchor="middle" x="315" y="-13.8" font-family="Times,serif" font-size="14.00" fill="#000000">2</text>
</g>
<!-- n3&#45;&gt;2 -->
<g id="edge8" class="edge">
<title>n3&#45;&gt;2</title>
<path fill="none" stroke="#000000" d="M315,-71.8314C315,-64.131 315,-54.9743 315,-46.4166"/>
<polygon fill="#000000" stroke="#000000" points="318.5001,-46.4132 315,-36.4133 311.5001,-46.4133 318.5001,-46.4132"/>
</g>
</g>
</svg>
